<svg width="39" height="39" viewBox="0 0 39 39" fill="none" xmlns="http://www.w3.org/2000/svg">
<g clip-path="url(#clip0_960_42)">
<path d="M19.0791 0.500075C22.3838 0.49567 25.6814 0.686469 32.2363 1.06452L34.2129 1.1778C35.1078 1.22942 35.8162 1.26971 36.3672 1.35554C36.9209 1.44182 37.387 1.5837 37.7627 1.88484C38.1573 2.20116 38.3403 2.60333 38.4238 3.07917C38.5019 3.52389 38.5 4.08036 38.5 4.73542V23.2394C38.5 25.0914 38.5007 26.5304 38.3428 27.6944C38.1822 28.878 37.8533 29.8184 37.1719 30.669C36.498 31.51 35.5684 32.1529 34.2842 32.8028C33.0038 33.4508 31.3233 34.129 29.1221 35.0177L24.123 37.0353C21.785 37.9792 20.4935 38.5102 19.083 38.5001C17.672 38.49 16.3931 37.9403 14.0801 36.963L9.57715 35.0606C7.44527 34.1599 5.81712 33.4722 4.57715 32.8204C3.33334 32.1666 2.43311 31.5259 1.78223 30.6954C1.12395 29.8554 0.80642 28.9311 0.651369 27.7706C0.498942 26.6293 0.500002 25.2204 0.500002 23.4073V4.72468C0.500001 4.07202 0.498498 3.51764 0.576174 3.07429C0.659342 2.59975 0.841352 2.19804 1.23438 1.88191C1.60858 1.58101 2.07325 1.43903 2.625 1.35163C3.17396 1.26469 3.87899 1.22283 4.77051 1.16902L5.92578 1.09968C12.4785 0.704174 15.7745 0.504489 19.0791 0.500075Z" fill="black"/>
<path opacity="0.2" d="M16.4309 26.3047C17.1398 26.3047 19.089 26.4177 21.2155 26.8699C23.3419 27.3221 25.2912 27.8119 26 28.0003C26 29.6959 27.5 31.0013 28.5 32.0013C29.5 33.0013 32 34.0013 32 34.0013L24.852 36.8495C22.4031 37.9007 20.9183 38.5587 19.2897 38.5463C17.6603 38.5338 17.1903 38.3075 14.768 37.2194L9.98034 35.0689C7.72207 34.0545 5.96654 33.266 4.6237 32.5155C3.2726 31.7605 2.23966 30.9917 1.48074 29.9622C1.29821 29.7145 1.13966 29.4607 1 29.2004C4.34423 28.9142 8.38858 27.9486 9.57333 27.6969C10.5 27.5 11.8236 26.8699 12.178 26.8699L16.4309 26.3047Z" fill="#D9D9D9"/>
<path opacity="0.2" d="M20.207 5.78913C20.9883 5.74492 21.6757 5.77359 22.1602 5.8946C22.2949 5.92829 22.4522 6.01143 22.624 6.12995C22.7974 6.24957 22.9931 6.40971 23.2061 6.60456C23.6323 6.99465 24.134 7.52939 24.6787 8.16609C25.7685 9.43984 27.0343 11.1316 28.2109 12.9259C29.3875 14.72 30.4776 16.6195 31.2148 18.3077C31.5834 19.1517 31.8647 19.9456 32.0244 20.6485C32.1836 21.3494 32.2244 21.9692 32.1016 22.461C31.624 24.3709 30.4276 25.6873 28.874 26.4044C27.3227 27.1202 25.419 27.2371 23.5215 26.7628C20.5287 26.0146 17.597 25.8269 16.5029 25.8262C15.4036 25.9831 12.931 26.296 11.7979 26.296C11.4249 26.2957 10.8518 26.143 10.21 25.8702C9.56447 25.5958 8.83816 25.1953 8.15625 24.6915C6.79724 23.6873 5.59001 22.252 5.58984 20.5587C5.58984 20.2486 5.68212 19.8397 5.84082 19.3653C6.00029 18.8887 6.22986 18.337 6.50977 17.7403C7.06967 16.5469 7.83491 15.1632 8.6582 13.8106C9.48172 12.4577 10.3652 11.1334 11.1602 10.0587C11.9521 8.9881 12.6643 8.15372 13.1475 7.79109C14.1061 7.07214 15.8876 6.48098 17.6523 6.128C18.5371 5.95104 19.4235 5.83351 20.207 5.78913ZM14.1484 8.71003C14.037 8.71008 13.9172 8.75114 13.7949 8.81745C13.6713 8.88453 13.5371 8.98164 13.3955 9.10261C13.1121 9.34472 12.7881 9.69095 12.4414 10.1114C11.7474 10.9531 10.9515 12.1033 10.1865 13.3389C9.42146 14.5748 8.68574 15.8999 8.11133 17.0928C7.53832 18.2829 7.12099 19.3514 7.00098 20.0714C6.87671 20.8179 7.19119 21.4946 7.7627 22.0811C8.33332 22.6666 9.16872 23.1723 10.1143 23.586C12.0059 24.4135 14.3693 24.8868 16.0283 24.8868C17.6869 24.8867 19.1107 24.5313 20.1807 24.0557C20.7155 23.818 21.1637 23.5495 21.5088 23.2794C21.8524 23.0104 22.0999 22.7349 22.2266 22.4815C22.3565 22.2215 22.3837 21.8757 22.3389 21.4718C22.2937 21.0656 22.1744 20.5877 21.9971 20.0557C21.6423 18.9915 21.052 17.6939 20.3467 16.2833C19.6374 14.8648 18.3403 12.9784 17.1045 11.4483C16.4864 10.6831 15.8809 10.0043 15.3701 9.5157C15.1151 9.27176 14.8813 9.0729 14.6797 8.93464C14.579 8.86565 14.4842 8.80994 14.3975 8.77156C14.3116 8.73363 14.2265 8.71009 14.1484 8.71003Z" fill="#D9D9D9"/>
<path d="M19.0791 0.500075C22.3838 0.49567 25.6814 0.686469 32.2363 1.06452L34.2129 1.1778C35.1078 1.22942 35.8162 1.26971 36.3672 1.35554C36.9209 1.44182 37.387 1.5837 37.7627 1.88484C38.1573 2.20116 38.3403 2.60333 38.4238 3.07917C38.5019 3.52389 38.5 4.08036 38.5 4.73542V23.2394C38.5 25.0914 38.5007 26.5304 38.3428 27.6944C38.1822 28.878 37.8533 29.8184 37.1719 30.669C36.498 31.51 35.5684 32.1529 34.2842 32.8028C33.0038 33.4508 31.3233 34.129 29.1221 35.0177L24.123 37.0353C21.785 37.9792 20.4935 38.5102 19.083 38.5001C17.672 38.49 16.3931 37.9403 14.0801 36.963L9.57715 35.0606C7.44527 34.1599 5.81712 33.4722 4.57715 32.8204C3.33334 32.1666 2.43311 31.5259 1.78223 30.6954C1.12395 29.8554 0.80642 28.9311 0.651369 27.7706C0.498942 26.6293 0.500002 25.2204 0.500002 23.4073V4.72468C0.500001 4.07202 0.498498 3.51764 0.576174 3.07429C0.659342 2.59975 0.841352 2.19804 1.23438 1.88191C1.60858 1.58101 2.07325 1.43903 2.625 1.35163C3.17396 1.26469 3.87899 1.22283 4.77051 1.16902L5.92578 1.09968C12.4785 0.704174 15.7745 0.504489 19.0791 0.500075Z" stroke="#FF214D" stroke-opacity="0.12"/>
</g>
<defs>
<clipPath id="clip0_960_42">
<rect width="39" height="39" fill="white"/>
</clipPath>
</defs>
</svg>
