<svg width="37" height="39" viewBox="0 0 37 39" fill="none" xmlns="http://www.w3.org/2000/svg">
<path d="M0.445312 7.56121C0.445312 4.03571 3.06513 1.06056 6.57417 0.720243C10.2446 0.364274 14.8842 0 18.5009 0C22.1175 0 26.7571 0.364274 30.4276 0.720243C33.9366 1.06056 36.5564 4.03572 36.5564 7.56122V26.287C36.5564 29.0322 34.9518 31.524 32.4525 32.6598L21.3969 37.6839C19.5568 38.5202 17.445 38.5202 15.6048 37.6839L4.54924 32.6598C2.04998 31.524 0.445312 29.0322 0.445312 26.287V7.56121Z" fill="black"/>
<mask id="mask0_1012_33" style="mask-type:alpha" maskUnits="userSpaceOnUse" x="0" y="0" width="37" height="39">
<path d="M18.501 0.722656C22.0807 0.722664 26.6911 1.08388 30.3574 1.43945C33.4846 1.74274 35.834 4.396 35.834 7.56152V26.2871C35.8339 28.749 34.3947 30.9834 32.1533 32.002L21.0977 37.0264C19.4474 37.7762 17.5535 37.7763 15.9033 37.0264L4.84766 32.002C2.60655 30.9833 1.16802 28.7489 1.16797 26.2871V7.56152C1.16797 4.39613 3.51655 1.74291 6.64355 1.43945C10.31 1.08387 14.9211 0.722656 18.501 0.722656Z" fill="black" stroke="#FF214D" stroke-width="1.44444"/>
</mask>
<g mask="url(#mask0_1012_33)">
<path opacity="0.2" d="M15.9332 25.3438C16.6191 25.3438 18.5055 25.4546 20.5634 25.8978C22.6212 26.341 24.5076 26.8212 25.1935 27.0059C25.1935 28.668 26.6452 29.9476 27.6129 30.9278C28.5806 31.9081 31 32.8883 31 32.8883L24.0825 35.6804C21.7127 36.7107 20.2758 37.3557 18.6997 37.3436C17.1229 37.3313 16.668 37.1095 14.3239 36.0429L9.69065 33.9349C7.50523 32.9405 5.79952 32.7357 4.5 32C3.19249 31.2598 2.19968 29.9382 1.46523 28.929C1.28859 28.6862 1.13516 28.4375 1 28.1823C4.23635 27.9017 8.15023 26.9552 9.29677 26.7085C10.1935 26.5155 11.4745 25.8978 11.8174 25.8978L15.9332 25.3438Z" fill="#D9D9D9"/>
<path opacity="0.2" d="M19.7715 5.78043C20.5162 5.7383 21.1725 5.76544 21.6348 5.88101C21.7638 5.91341 21.9137 5.99286 22.0771 6.10562C22.2426 6.21979 22.4297 6.37291 22.6328 6.55875C23.0391 6.93061 23.518 7.43933 24.0371 8.04605C25.0756 9.25982 26.2811 10.8725 27.4023 12.5822C28.5234 14.2917 29.562 16.1022 30.2646 17.7111C30.6159 18.5154 30.8848 19.2725 31.0371 19.9425C31.1888 20.6105 31.2266 21.2024 31.1094 21.672C30.6541 23.493 29.5135 24.7479 28.0322 25.4318C26.553 26.1145 24.7376 26.2267 22.9287 25.7746C20.0783 25.062 17.286 24.8827 16.2432 24.882C15.196 25.0314 12.8401 25.3292 11.7598 25.3293C11.4036 25.3292 10.857 25.183 10.2451 24.923C9.62965 24.6614 8.93631 24.2803 8.28613 23.8C6.99077 22.8429 5.83984 21.4735 5.83984 19.8576C5.83996 19.5613 5.92782 19.171 6.0791 18.7189C6.23114 18.2647 6.4501 17.7395 6.7168 17.1711C7.25043 16.0336 7.98007 14.7149 8.76465 13.4259C9.54938 12.1368 10.3899 10.8738 11.1475 9.84976C11.9022 8.82955 12.5821 8.03431 13.043 7.68863C13.9574 7.00306 15.6555 6.43995 17.3369 6.10367C18.1801 5.93506 19.0247 5.8227 19.7715 5.78043ZM13.999 8.56461C13.8919 8.5647 13.7768 8.60394 13.6602 8.66714C13.542 8.73125 13.4134 8.82427 13.2783 8.93961C13.0081 9.17049 12.6994 9.50098 12.3691 9.90152C11.7078 10.7036 10.9495 11.7995 10.2207 12.9767C9.49166 14.1544 8.78961 15.417 8.24219 16.5539C7.69622 17.6878 7.29913 18.707 7.18457 19.3937C7.06577 20.1071 7.36591 20.7531 7.91113 21.3127C8.45539 21.8712 9.25201 22.3529 10.1533 22.7472C11.9562 23.5359 14.2086 23.9874 15.79 23.9875C17.371 23.9874 18.729 23.6488 19.749 23.1955C20.2586 22.9689 20.6856 22.7127 21.0146 22.4552C21.3421 22.1989 21.579 21.9357 21.7002 21.6935C21.8246 21.4445 21.8514 21.113 21.8086 20.7277C21.7655 20.3403 21.6504 19.885 21.4814 19.3781C21.1433 18.3638 20.5812 17.1273 19.9092 15.7834C19.2331 14.4313 17.997 12.634 16.8193 11.1759C16.2303 10.4466 15.6539 9.79891 15.167 9.33316C14.9238 9.10056 14.7003 8.9114 14.5078 8.77945C14.4117 8.71356 14.3214 8.65992 14.2383 8.6232C14.1562 8.58694 14.0743 8.56468 13.999 8.56461Z" fill="#D9D9D9"/>
<path d="M18.501 0.5C22.092 0.500007 26.7113 0.862086 30.3789 1.21777C33.6236 1.53245 36.0566 4.28524 36.0566 7.56152V26.2871C36.0566 28.8361 34.5667 31.1504 32.2461 32.2051L21.1904 37.2285C19.4817 38.005 17.5202 38.005 15.8115 37.2285L4.75586 32.2051C2.43517 31.1505 0.94536 28.8362 0.945312 26.2871V7.56152C0.945312 4.28536 3.37756 1.53262 6.62207 1.21777C10.2898 0.86207 14.9098 0.5 18.501 0.5Z" stroke="#2D1217"/>
</g>
</svg>
