{
	"asset":{
		"generator":"Khronos glTF Blender I/O v4.2.60",
		"version":"2.0"
	},
	"scene":0,
	"scenes":[
		{
			"name":"Scene",
			"nodes":[
				0
			]
		}
	],
	"nodes":[
		{
			"mesh":0,
			"name":"reward",
			"rotation":[
				0.7071068286895752,
				0,
				0,
				0.7071068286895752
			],
			"scale":[
				3.2926108837127686,
				25.617637634277344,
				3.2926108837127686
			],
			"translation":[
				0,
				0.003643251955509186,
				0.0011759840417653322
			]
		}
	],
	"materials":[
		{
			"doubleSided":true,
			"name":"Material",
			"normalTexture":{
				"index":0
			},
			"pbrMetallicRoughness":{
				"baseColorTexture":{
					"index":1
				},
				"metallicRoughnessTexture":{
					"index":2
				}
			}
		}
	],
	"meshes":[
		{
			"name":"Curve.001",
			"primitives":[
				{
					"attributes":{
						"POSITION":0,
						"NORMAL":1,
						"TEXCOORD_0":2
					},
					"indices":3,
					"material":0
				}
			]
		}
	],
	"textures":[
		{
			"sampler":0,
			"source":0
		},
		{
			"sampler":0,
			"source":1
		},
		{
			"sampler":0,
			"source":2
		}
	],
	"images":[
		{
			"mimeType":"image/png",
			"name":"Normal",
			"uri":"Normal.png"
		},
		{
			"mimeType":"image/png",
			"name":"BaseColor",
			"uri":"BaseColor.png"
		},
		{
			"mimeType":"image/png",
			"name":"Metallic-Roughness",
			"uri":"Metallic-Roughness.png"
		}
	],
	"accessors":[
		{
			"bufferView":0,
			"componentType":5126,
			"count":645,
			"max":[
				0.012469234876334667,
				0.00012582214549183846,
				0.017603188753128052
			],
			"min":[
				-0.012469234876334667,
				-0.00010979839134961367,
				-0.016656536608934402
			],
			"type":"VEC3"
		},
		{
			"bufferView":1,
			"componentType":5126,
			"count":645,
			"type":"VEC3"
		},
		{
			"bufferView":2,
			"componentType":5126,
			"count":645,
			"type":"VEC2"
		},
		{
			"bufferView":3,
			"componentType":5123,
			"count":2034,
			"type":"SCALAR"
		}
	],
	"bufferViews":[
		{
			"buffer":0,
			"byteLength":7740,
			"byteOffset":0,
			"target":34962
		},
		{
			"buffer":0,
			"byteLength":7740,
			"byteOffset":7740,
			"target":34962
		},
		{
			"buffer":0,
			"byteLength":5160,
			"byteOffset":15480,
			"target":34962
		},
		{
			"buffer":0,
			"byteLength":4068,
			"byteOffset":20640,
			"target":34963
		}
	],
	"samplers":[
		{
			"magFilter":9729,
			"minFilter":9987
		}
	],
	"buffers":[
		{
			"byteLength":24708,
			"uri":"pioneer.bin"
		}
	]
}
