<svg width="39" height="39" viewBox="0 0 39 39" fill="none" xmlns="http://www.w3.org/2000/svg">
<path d="M19.0791 0.5C22.3838 0.495595 25.6814 0.686394 32.2363 1.06445L34.2129 1.17773C35.1078 1.22935 35.8162 1.26964 36.3672 1.35547C36.9209 1.44175 37.387 1.58363 37.7627 1.88477C38.1573 2.20109 38.3403 2.60326 38.4238 3.0791C38.5019 3.52382 38.5 4.08029 38.5 4.73535V23.2393C38.5 25.0913 38.5007 26.5303 38.3428 27.6943C38.1822 28.8779 37.8533 29.8183 37.1719 30.6689C36.498 31.5099 35.5684 32.1528 34.2842 32.8027C33.0038 33.4507 31.3233 34.1289 29.1221 35.0176L24.123 37.0352C21.785 37.9791 20.4935 38.5101 19.083 38.5C17.672 38.4899 16.3931 37.9402 14.0801 36.9629L9.57715 35.0605C7.44527 34.1598 5.81712 33.4721 4.57715 32.8203C3.33334 32.1665 2.43311 31.5258 1.78223 30.6953C1.12395 29.8553 0.806418 28.931 0.651367 27.7705C0.49894 26.6292 0.5 25.2203 0.5 23.4072V4.72461C0.499999 4.07195 0.498496 3.51757 0.576172 3.07422C0.65934 2.59968 0.84135 2.19797 1.23438 1.88184C1.60858 1.58094 2.07325 1.43896 2.625 1.35156C3.17396 1.26462 3.87899 1.22276 4.77051 1.16895L5.92578 1.09961C12.4785 0.704099 15.7745 0.504414 19.0791 0.5Z" fill="black" stroke="#FF214D"/>
</svg>
